<svg width="9" height="16" viewBox="0 0 9 16" fill="none" xmlns="http://www.w3.org/2000/svg">
<path d="M7.80996 0.6698L5.95845 0.666748C3.87834 0.666748 2.53409 2.08347 2.53409 4.27623V5.94045H0.67248C0.511614 5.94045 0.381348 6.07442 0.381348 6.23966V8.65092C0.381348 8.81617 0.511763 8.94998 0.67248 8.94998H2.53409V15.0344C2.53409 15.1996 2.66435 15.3334 2.82522 15.3334H5.25409C5.41496 15.3334 5.54522 15.1994 5.54522 15.0344V8.94998H7.72188C7.88274 8.94998 8.01301 8.81617 8.01301 8.65092L8.0139 6.23966C8.0139 6.16032 7.98315 6.08433 7.92864 6.02818C7.87413 5.97203 7.79986 5.94045 7.72262 5.94045H5.54522V4.52967C5.54522 3.8516 5.70252 3.50737 6.5624 3.50737L7.80966 3.50691C7.97038 3.50691 8.10065 3.37295 8.10065 3.20785V0.968861C8.10065 0.80392 7.97053 0.670105 7.80996 0.6698Z" fill="white"/>
</svg>
