<svg width="14" height="14" viewBox="0 0 14 14" fill="none" xmlns="http://www.w3.org/2000/svg">
<path d="M13.7553 4.25329C13.7241 3.54484 13.6095 3.05778 13.4454 2.63574C13.2761 2.18776 13.0157 1.78668 12.6744 1.45326C12.341 1.11465 11.9373 0.851542 11.4945 0.684883C11.07 0.520768 10.5855 0.406203 9.87703 0.374967C9.16329 0.341086 8.9367 0.333252 7.12646 0.333252C5.31621 0.333252 5.08962 0.341086 4.37853 0.372322C3.67008 0.403558 3.18302 0.518225 2.76109 0.682238C2.313 0.851542 1.91192 1.11201 1.5785 1.45326C1.2399 1.78668 0.976887 2.19041 0.810127 2.6332C0.646012 3.05778 0.531447 3.54219 0.500212 4.25064C0.46633 4.96438 0.458496 5.19097 0.458496 7.00122C0.458496 8.81147 0.46633 9.03806 0.497566 9.74915C0.528802 10.4576 0.643468 10.9447 0.807583 11.3667C0.976887 11.8147 1.2399 12.2158 1.5785 12.5492C1.91192 12.8878 2.31565 13.1509 2.75844 13.3176C3.18302 13.4817 3.66743 13.5962 4.37598 13.6275C5.08698 13.6588 5.31366 13.6665 7.12391 13.6665C8.93416 13.6665 9.16074 13.6588 9.87184 13.6275C10.5803 13.5962 11.0673 13.4817 11.4893 13.3176C12.3853 12.9711 13.0938 12.2627 13.4402 11.3667C13.6043 10.9421 13.7189 10.4576 13.7502 9.74915C13.7814 9.03806 13.7892 8.81147 13.7892 7.00122C13.7892 5.19097 13.7866 4.96438 13.7553 4.25329ZM12.5547 9.69706C12.526 10.3482 12.4166 10.6999 12.3254 10.9343C12.1014 11.5151 11.6404 11.9761 11.0595 12.2002C10.8251 12.2914 10.4709 12.4007 9.82229 12.4293C9.11903 12.4607 8.90811 12.4684 7.1291 12.4684C5.35009 12.4684 5.13653 12.4607 4.43581 12.4293C3.78464 12.4007 3.43301 12.2914 3.19859 12.2002C2.90953 12.0934 2.64642 11.9241 2.43286 11.7027C2.21146 11.4865 2.04216 11.226 1.93532 10.9369C1.84416 10.7025 1.73479 10.3482 1.70619 9.6997C1.67486 8.99644 1.66712 8.78542 1.66712 7.00641C1.66712 5.2274 1.67486 5.01383 1.70619 4.31322C1.73479 3.66205 1.84416 3.31042 1.93532 3.076C2.04216 2.78684 2.21146 2.52382 2.4355 2.31016C2.65161 2.08876 2.91208 1.91946 3.20124 1.81273C3.43566 1.72156 3.78993 1.61219 4.43845 1.5835C5.14172 1.55226 5.35274 1.54443 7.13164 1.54443C8.9133 1.54443 9.12422 1.55226 9.82494 1.5835C10.4761 1.61219 10.8277 1.72156 11.0622 1.81273C11.3512 1.91946 11.6143 2.08876 11.8279 2.31016C12.0493 2.52637 12.2186 2.78684 12.3254 3.076C12.4166 3.31042 12.526 3.66459 12.5547 4.31322C12.5859 5.01648 12.5937 5.2274 12.5937 7.00641C12.5937 8.78542 12.5859 8.9938 12.5547 9.69706Z" fill="white"/>
<path d="M7.12645 3.57607C5.23552 3.57607 3.70131 5.11019 3.70131 7.00123C3.70131 8.89226 5.23552 10.4264 7.12645 10.4264C9.01749 10.4264 10.5516 8.89226 10.5516 7.00123C10.5516 5.11019 9.01749 3.57607 7.12645 3.57607ZM7.12645 9.22304C5.89971 9.22304 4.90465 8.22807 4.90465 7.00123C4.90465 5.77438 5.89971 4.77941 7.12645 4.77941C8.3533 4.77941 9.34826 5.77438 9.34826 7.00123C9.34826 8.22807 8.3533 9.22304 7.12645 9.22304Z" fill="white"/>
<path d="M11.4868 3.44065C11.4868 3.88223 11.1287 4.24027 10.687 4.24027C10.2455 4.24027 9.88742 3.88223 9.88742 3.44065C9.88742 2.99898 10.2455 2.64103 10.687 2.64103C11.1287 2.64103 11.4868 2.99898 11.4868 3.44065Z" fill="white"/>
</svg>
