<svg width="13" height="16" viewBox="0 0 13 16" fill="none" xmlns="http://www.w3.org/2000/svg">
<path d="M6.3025 0.666748C2.25367 0.667359 0.101562 3.24323 0.101562 6.05194C0.101562 7.35423 0.834523 8.9792 2.00812 9.49437C2.34291 9.6441 2.2986 9.46137 2.58661 8.36747C2.60938 8.27641 2.59769 8.19758 2.52384 8.11263C0.846216 6.18577 2.19644 2.22449 6.0631 2.22449C11.6591 2.22449 10.6135 9.9136 7.03669 9.9136C6.11479 9.9136 5.42799 9.19492 5.64523 8.30575C5.90863 7.24667 6.42435 6.10816 6.42435 5.34487C6.42435 3.42106 3.53805 3.70646 3.53805 6.25544C3.53805 7.04317 3.81868 7.57485 3.81868 7.57485C3.81868 7.57485 2.89001 11.3002 2.7177 11.9963C2.42599 13.1745 2.75708 15.0818 2.78601 15.2462C2.80385 15.3367 2.90601 15.3654 2.96325 15.2908C3.05494 15.1717 4.17746 13.5815 4.49194 12.432C4.60641 12.0134 5.07597 10.3145 5.07597 10.3145C5.38553 10.8694 6.27788 11.3338 7.2287 11.3338C10.0571 11.3338 12.1016 8.86492 12.1016 5.80138C12.0917 2.86433 9.56051 0.666748 6.3025 0.666748V0.666748Z" fill="white"/>
</svg>
