<svg width="21" height="21" viewBox="0 0 21 21" fill="none" xmlns="http://www.w3.org/2000/svg">
<path fill-rule="evenodd" clip-rule="evenodd" d="M3.5536 8.29062C3.5536 7.66856 3.67612 7.05259 3.91417 6.47788C4.15223 5.90317 4.50115 5.38097 4.94101 4.94111C5.38087 4.50125 5.90307 4.15233 6.47778 3.91428C7.05249 3.67622 7.66846 3.5537 8.29052 3.5537C8.91258 3.5537 9.52855 3.67622 10.1033 3.91428C10.678 4.15233 11.2002 4.50125 11.64 4.94111C12.0799 5.38097 12.4288 5.90317 12.6669 6.47788C12.9049 7.05259 13.0274 7.66856 13.0274 8.29062C13.0274 9.54693 12.5284 10.7518 11.64 11.6401C10.7517 12.5285 9.54683 13.0275 8.29052 13.0275C7.03421 13.0275 5.82935 12.5285 4.94101 11.6401C4.05266 10.7518 3.5536 9.54693 3.5536 8.29062ZM8.29052 0.395752C7.05944 0.395882 5.84546 0.683906 4.74553 1.23682C3.64561 1.78973 2.69023 2.59221 1.95571 3.58015C1.22119 4.56808 0.727883 5.71411 0.515198 6.92667C0.302513 8.13923 0.376342 9.38473 0.730788 10.5637C1.08523 11.7426 1.71047 12.8223 2.55657 13.7166C3.40266 14.6108 4.44615 15.2948 5.60369 15.7139C6.76123 16.133 8.00074 16.2756 9.22321 16.1303C10.4457 15.985 11.6172 15.5558 12.6443 14.877L17.7001 19.934C17.9964 20.2302 18.3981 20.3966 18.817 20.3966C19.2359 20.3966 19.6377 20.2302 19.9339 19.934C20.2301 19.6378 20.3965 19.236 20.3965 18.8171C20.3965 18.3982 20.2301 17.9965 19.9339 17.7002L14.8769 12.6444C15.6636 11.4545 16.1131 10.0737 16.1778 8.64872C16.2425 7.22378 15.9199 5.80792 15.2444 4.55162C14.5689 3.29532 13.5656 2.24551 12.3411 1.51376C11.1167 0.782008 9.71693 0.395652 8.29052 0.395752Z" fill="white"/>
</svg>
