<svg width="18" height="18" viewBox="0 0 18 18" fill="none" xmlns="http://www.w3.org/2000/svg">
<path d="M16.5826 12.1547C15.61 12.0347 14.6441 11.8645 13.689 11.6449C13.4559 11.567 13.2065 11.5505 12.9651 11.5972C12.7237 11.6439 12.4985 11.7521 12.3111 11.9113C12.0677 12.1593 11.365 12.8529 10.6347 13.5694C8.01816 12.2831 5.90209 10.1654 4.61784 7.54793C5.32976 6.81764 5.99575 6.11951 6.26673 5.87608C6.42597 5.68875 6.53415 5.46349 6.58082 5.2221C6.62749 4.98071 6.61106 4.73136 6.53313 4.49818C6.31322 3.54157 6.14305 2.57421 6.0233 1.59999C6.01047 1.47593 5.97252 1.35578 5.91174 1.24687C5.85097 1.13795 5.76865 1.04256 5.66981 0.966493C5.57097 0.890428 5.45767 0.835287 5.33683 0.804432C5.21598 0.773578 5.09012 0.767655 4.96691 0.787025H1.05367C0.89214 0.801608 0.740934 0.872709 0.626673 0.987811C0.512411 1.10291 0.442419 1.25464 0.42902 1.41627C0.176405 4.94829 2.14681 8.72834 2.5464 9.45403V9.48159L2.60151 9.58723C4.03193 12.0681 6.09154 14.1277 8.57242 15.5581L8.77452 15.673C9.69312 16.1598 13.3446 17.997 16.7572 17.7444C16.9204 17.7331 17.0743 17.664 17.1913 17.5496C17.3083 17.4351 17.3807 17.2827 17.3956 17.1198V13.2111C17.415 13.0879 17.409 12.962 17.3782 12.8412C17.3473 12.7204 17.2922 12.6071 17.2161 12.5082C17.1401 12.4094 17.0447 12.3271 16.9358 12.2663C16.8268 12.2055 16.7067 12.1676 16.5826 12.1547Z" fill="white"/>
</svg>
