<svg width="15" height="12" viewBox="0 0 15 12" fill="none" xmlns="http://www.w3.org/2000/svg">
<path d="M14.1016 1.84839C13.5863 2.06701 13.0334 2.21528 12.4525 2.28147C13.0456 1.94137 13.4997 1.40192 13.7149 0.761093C13.1585 1.07605 12.5443 1.30475 11.8899 1.42873C11.3659 0.893459 10.6206 0.560059 9.79383 0.560059C8.20776 0.560059 6.92175 1.79143 6.92175 3.30929C6.92175 3.52457 6.94712 3.73482 6.99612 3.93588C4.60957 3.8211 2.49335 2.72627 1.07699 1.06265C0.829404 1.46809 0.688557 1.94051 0.688557 2.44481C0.688557 3.39892 1.19597 4.24078 1.96583 4.73332C1.49516 4.71825 1.05249 4.59427 0.664949 4.3882V4.42254C0.664949 5.75444 1.65527 6.86602 2.96839 7.11901C2.7278 7.181 2.47411 7.21534 2.21165 7.21534C2.0262 7.21534 1.84685 7.19775 1.67101 7.16424C2.03668 8.2574 3.097 9.05234 4.35327 9.07414C3.37082 9.81129 2.13205 10.2494 0.786557 10.2494C0.554733 10.2494 0.326386 10.236 0.101562 10.2117C1.37271 10.9933 2.8818 11.4489 4.50375 11.4489C9.78688 11.4489 12.6747 7.25891 12.6747 3.62511L12.6651 3.2691C13.2294 2.88374 13.7175 2.39958 14.1016 1.84839Z" fill="white"/>
</svg>
