<svg width="17" height="12" viewBox="0 0 17 12" fill="none" xmlns="http://www.w3.org/2000/svg">
<path fill-rule="evenodd" clip-rule="evenodd" d="M14.3618 0.742552C15.0471 0.927121 15.5875 1.4674 15.7719 2.15282C16.1147 3.40477 16.1015 6.01438 16.1015 6.01438C16.1015 6.01438 16.1015 8.61068 15.772 9.86275C15.5875 10.548 15.0472 11.0884 14.3618 11.2729C13.1097 11.6025 8.10153 11.6025 8.10153 11.6025C8.10153 11.6025 3.10643 11.6025 1.8413 11.2598C1.15588 11.0753 0.615598 10.5349 0.431029 9.84956C0.101562 8.61068 0.101562 6.00119 0.101562 6.00119C0.101562 6.00119 0.101562 3.40477 0.431029 2.15282C0.615476 1.46752 1.16906 0.913938 1.84118 0.729491C3.09325 0.399902 8.10141 0.399902 8.10141 0.399902C8.10141 0.399902 13.1097 0.399902 14.3618 0.742552ZM10.6715 6.00121L6.50681 8.3999V3.60253L10.6715 6.00121Z" fill="white"/>
</svg>
